<?xml version="1.0" encoding="UTF-8"?>
<!DOCTYPE svg PUBLIC "-//W3C//DTD SVG 1.1//EN" "http://www.w3.org/Graphics/SVG/1.1/DTD/svg11.dtd">
<!-- Creator: CorelDRAW 2020 (64 Bit) -->
<svg xmlns="http://www.w3.org/2000/svg" xml:space="preserve" width="20.028in" height="5.583in" version="1.1" style="shape-rendering:geometricPrecision; text-rendering:geometricPrecision; image-rendering:optimizeQuality; fill-rule:evenodd; clip-rule:evenodd"
viewBox="0 0 20028 5583"
 xmlns:xlink="http://www.w3.org/1999/xlink"
 xmlns:xodm="http://www.corel.com/coreldraw/odm/2003">
 <defs>
  <style type="text/css">
   <![CDATA[
    .fil0 {fill:#FE9500}
    .fil1 {fill:white}
   ]]>
  </style>
 </defs>
 <g id="Camada_x0020_1_0">
  <metadata id="CorelCorpID_0Corel-Layer"/>
 </g>
 <g id="Camada_x0020_1_0_0">
  <metadata id="CorelCorpID_1Corel-Layer"/>
  <g id="_1272773779168">
   <path class="fil0" d="M10330.79 3576.98c14.27,34.36 12.21,109.56 4.75,153.94 -12.05,71.66 -38.44,66.08 -59.25,117.97l786.56 -295.72c378.46,-148.13 337.38,-210.65 337.38,-745.95 0,-240.74 0,-481.48 0,-722.22l378.53 413.14c42.28,41.65 53.54,62.35 90.33,104.12 35.43,40.22 69.77,64.45 102.66,105.68 179.99,225.62 288.38,240.27 470.15,2.07l482.91 -517.09c37.85,-38.29 57.28,-79.02 100.42,-107.91 0,163.24 -21.46,1607.15 15.11,1693.23 58.38,137.45 280.88,98.44 484.89,98.44 641.56,0 569.44,69.67 569.44,-569.44l0.09 -2569.54c1.83,-314 -84.15,-249.91 -625.09,-249.91 -495.92,0 -415.7,-49.33 -626.92,234.19l-504.16 648.62c-33.24,44.2 -95.5,133.87 -132.81,158.85 -13.8,-51.69 -491.06,-648.31 -509.57,-670.98l-256.91 -326.43c-65.32,-64.12 -127.37,-44.33 -247.41,-44.26 -101.5,0.06 -204.51,-4.49 -305.56,2.46l-166.67 0c-451.89,-31.07 -388.89,57.71 -388.89,469.76 0,291.67 0,583.33 0,875 0,580.66 0,1161.32 0,1741.98l0.02 0z"/>
   <path class="fil1" d="M1039.13 2946.11l-444.44 0 0 -1958.33c470.06,0 857.53,-45.89 1230.67,199.89 199.76,131.58 338.78,423.18 338.78,661.22 0,269.5 18.76,368.89 -106.16,616.06 -175.04,346.35 -592.33,481.16 -1018.84,481.16l-0.01 0zm-1041.67 -2222.22l0 2486.11c0,143.76 134.02,277.78 277.78,277.78l944.44 0c280.2,0 673.66,-101.09 886.33,-238.67l214.65 -160.35c68.39,-65.88 122.88,-119.57 178.98,-196.02 46.49,-63.35 108.08,-157.56 140.83,-234.17 207.8,-486.05 186.56,-1192.87 -126.89,-1617.46 -271.26,-367.45 -719.89,-594.99 -1280.01,-594.99l-958.33 0c-143.76,0 -277.78,134.01 -277.78,277.78l0 -0.01z"/>
   <path class="fil1" d="M3983.57 2057.22c0,-326.98 34.24,-543.39 267.33,-774.33 267.48,-265.03 420,-295.11 774.33,-295.11 445.52,0 888.89,462.58 888.89,888.89 0,338.06 -36.5,562.56 -294.83,816.28 -70.02,68.77 -186.57,145.37 -284.4,187.82 -362.05,157.09 -798.5,71.98 -1056.31,-188 -78.7,-79.36 -145.03,-161.25 -197.05,-261.29 -42.06,-80.88 -97.97,-253.11 -97.97,-374.26l0.01 0zm-625 -83.33c0,864.01 719.1,1555.56 1541.67,1555.56 479.2,0 852.32,-136.2 1177.09,-461.8 143.02,-143.38 222.33,-254.09 318.46,-445.43 200.42,-398.9 166.65,-884.74 10.5,-1279.37 -210.49,-531.97 -829.75,-938.39 -1436.6,-938.39 -506.61,0 -880.47,191.48 -1142.37,454.85 -300.04,301.7 -468.74,653.28 -468.74,1114.59l-0.01 -0.01z"/>
   <path class="fil1" d="M14650.24 682.22l0 1680.56c0,163.01 60.41,372.06 111.25,485.97 334.09,748.47 1374.57,838.75 1959.16,487.22 75.27,-45.26 105.66,-78.26 171.74,-133.81 221.39,-186.08 368.95,-549.91 368.95,-839.38l0 -1680.56c0,-258.48 -382.63,-404.8 -555.74,-125.18 -57.81,93.38 -41.48,253.05 -41.48,402.96 0,291.67 0,583.33 0,875 0,382.19 54.56,820.63 -283.3,1022.26 -275.55,164.44 -821.62,182.21 -1049.68,-217.06 -110.6,-193.63 -83.69,-491.51 -83.69,-791.31 0,-291.67 0,-583.33 0,-875 0,-137.47 16.07,-301.85 -31.65,-398.9 -139.01,-282.66 -565.57,-181.37 -565.57,107.24l0.01 -0z"/>
   <path class="fil1" d="M17830.79 1279.44c0,408.28 284.25,667.81 633.6,783.07 183.1,60.41 341.37,123.45 524.47,183.86 333.05,109.88 411.37,180.86 411.37,408.07 0,204.07 -218.52,319.44 -430.56,319.44 -236.83,0 -294.19,-0.63 -522,-103 -150.14,-67.47 -330.4,-270.06 -523.77,-81.65 -174.3,169.82 -116.94,369.49 87.2,504.33 659.01,435.31 2014.12,301.92 2014.12,-680.79 0,-244.46 -48.07,-419.08 -197.73,-580.05 -398.45,-428.54 -1371.72,-413.24 -1371.72,-725.51l0 -83.33c0,-341.54 627.02,-288.27 861.39,-194.72 75.56,30.16 216.87,111.39 305.28,111.39 162.1,0 291.67,-129.57 291.67,-291.67 0,-551.26 -2083.33,-777.41 -2083.33,430.56l0.02 0z"/>
   <path class="fil1" d="M10276.29 3848.89c20.81,-51.89 47.2,-46.31 59.25,-117.97 7.46,-44.38 9.52,-119.57 -4.75,-153.94 -44.94,153.88 -228.39,184.18 -322.77,53.01 -35.23,-48.96 -25.07,-92.72 -24.56,-169.89l0.1 -1875.1c0.02,-169.93 32.92,-230.15 -83.33,-291.67 -58.39,30.9 -128.04,102.87 -177.26,156.08 -27.71,29.95 -29.41,39.89 -55.49,69.51 -68.36,77.63 -85.33,75.67 -167.97,179.26l-394.31 425.14c-40.53,40.11 -66.65,94.84 -135.54,100.57 -14.96,-56.01 -62.27,-82.93 -100.9,-121.32l-645.72 -715.39c-53.74,-61.76 -54.58,-79.95 -156.16,-79.95 -53.11,79.32 -42.61,66.96 -41.76,194.35l0.1 1722.32 -736.11 0 0 -3069.44 833.33 0 731.7 948.85c186.46,233.76 280.41,28.45 399.16,-123.55l633.03 -825.3 833.33 0 0 335.79 166.67 0c0,-463.09 35.99,-487.57 -263.6,-488.57l-83.62 0 -6.51 0 -6.51 0 -6.51 0 -6.51 0 -6.51 0 -6.51 0 -6.51 0 -6.51 0 -6.51 0 -6.51 0 -6.51 0 -6.51 0 -6.51 0 -6.51 0 -6.51 0 -6.51 0 -6.51 0 -6.51 0 -6.51 0 -6.51 0 -6.51 0 -6.51 0 -6.51 0 -6.51 0 -6.51 0 -6.51 0 -6.51 0 -6.51 0 -6.51 0 -6.51 0 -6.51 0 -6.51 0 -6.51 0 -6.51 0 -6.51 0 -6.51 0 -6.51 0 -6.51 0 -6.51 0 -6.51 0 -6.51 0 -6.51 0 -6.51 0 -6.51 0 -6.51 0 -6.51 0 -6.51 0 -6.51 0 -6.51 0 -6.51 0 -6.51 0 -6.51 0 -6.51 0 -6.51 0 -6.51 0 -6.51 0 -6.51 0 -6.51 0 -6.51 0 -6.51 0 -6.51 0 -6.51 0 -6.51 0 -6.51 0 -3.26 0 -227.07 0c-127.89,9.51 -170.85,106.8 -315.32,301.57 -63.56,85.7 -125.96,158.01 -188.54,242.01 -39.21,52.63 -350.01,435.43 -363.03,484.19 -69.58,-18.57 -216.85,-251.05 -261.98,-307.47 -43.05,-53.82 -77.87,-100.4 -122.59,-155.18l-375.85 -485.26c-53.32,-61.08 -65.98,-77.13 -146.96,-79.87l-830.43 0c-36.52,2.06 -62.34,4.95 -72.67,8.96 -130.41,50.61 -92.29,287.14 -92.29,477.15l0 2291.67c0,717.06 -128.28,590.93 833.43,597.32 306.31,2.04 236.01,-111.72 236.01,-625.1 0,-384.26 0,-768.52 0,-1152.78l573.2 621.25c14.93,15.5 200.37,301.04 367.58,111.19 111.6,-126.71 613.04,-684.77 684.22,-732.44 0,458.33 0,916.67 0,1375 0,198.04 -28.15,511.65 22.13,672.32 47.53,151.89 249.6,288.96 437.26,202.68l0.09 -0.01z"/>
   <path class="fil1" d="M11789.13 5307.22c0,-120.44 10.92,-263.89 222.22,-263.89 60.35,0 108.7,22.54 141.72,52.73 110.44,100.95 98,375.45 -132.33,400.04 -50.83,5.43 -118.3,-14.46 -154.3,-43.96 -36.15,-29.62 -77.3,-87.37 -77.3,-144.93l-0.01 0.01zm223.03 277.78l-17.77 0c-73.45,-2.3 -147.91,-31.94 -209.23,-93.26 -50.28,-50.29 -93.26,-118.15 -93.26,-212.3 0,-458.5 659.38,-395.96 619.87,8.44 -17.85,182.76 -154.5,292.98 -299.62,297.11l0.01 0.01z"/>
   <path class="fil1" d="M9539.13 5043.33c65.91,0 135.31,26.71 169.48,66.62 176.35,205.93 -110,536.82 -323.69,323.69 -125.59,-125.27 -59.35,-390.31 154.2,-390.31l0.01 0zm-305.56 208.33c0,102.15 28.22,179.61 80.89,238.56 156.63,175.25 530.22,86.79 530.22,-183 0,-127.13 7.73,-170.83 -93.24,-267.87 -119.37,-114.72 -324.74,-101 -424.87,-0.23 -47.06,47.36 -93.01,124.41 -93.01,212.55l0.01 -0.01z"/>
   <path class="fil1" d="M8025.24 5015.55l0 513.89c0,32 9.66,41.67 41.67,41.67 66.87,0 41.78,-130.91 41.67,-194.44 -0.13,-83.33 -0.01,-166.67 -0.01,-250.01 8.05,9.26 6.02,6.45 19.23,22.44l279.59 373.19c64.78,87.39 103.96,45.77 103.96,7.15l0 -513.89c0,-37.14 -20.05,-41.08 -41.67,-55.56 -63.49,42.52 -42,91.24 -41.69,194.43 0.25,83.33 0.02,166.69 0.02,250.02 -94,-68.87 -270.29,-416.48 -375,-444.44 -16.78,25.07 -27.78,24.42 -27.78,55.56l0.01 -0z"/>
   <path class="fil1" d="M5650.24 4973.89c-3.62,43.44 -13.89,49.34 -13.89,97.22l0 416.67c0,122.44 96.3,83.33 402.78,83.33 60.63,0 36.27,-46.89 27.78,-83.33l-333.33 0 0 -180.56c194.1,0 220.77,22.73 263.89,-41.67 -43.12,-64.4 -69.79,-41.67 -263.89,-41.67l0 -166.67c191.08,0 324.22,30.59 347.22,-55.56 -50.24,-68.57 -194.46,-41.67 -361.11,-41.67 -21.88,0 -52.63,7.36 -69.44,13.89l-0.01 0.02z"/>
   <path class="fil1" d="M13025.24 5265.55c0,383.14 513.89,380.01 513.89,180.56 0,-219.33 24.88,-194.44 -194.44,-194.44 -58.85,0 -58.85,83.33 0,83.33l97.22 0 0 138.89c-84.94,7.07 -120.85,44.75 -208.21,0.06 -164.13,-83.96 -173.02,-430.62 124.88,-430.62 79.29,0 79.66,55.56 138.89,55.56 105.37,0 17.77,-138.89 -180.56,-138.89 -152.69,0 -291.67,152.84 -291.67,305.56l-0 -0.01z"/>
   <path class="fil1" d="M15316.91 5126.66c48.44,35.49 71.21,152.96 111.11,236.11l-194.44 0c5.71,-68.65 58.04,-127.56 83.33,-236.11zm-250 416.67c0,19.46 18.94,27.78 41.67,27.78 52.1,0 64.55,-85.86 83.33,-125l277.78 0c3.03,36.41 5.46,44.6 20.11,77.11 13.93,30.92 9.63,47.89 49.33,47.89 101.85,0 -3.18,-185.74 -55.92,-305.19 -68,-154.02 -84.81,-262.79 -166.31,-305.92 -54.24,51.46 -250,539.51 -250,583.33l0.01 0z"/>
   <path class="fil1" d="M6803.02 5237.77l0 69.44c0,148.98 176.99,347.13 414.73,248.06 37.94,-15.81 72.74,-34.48 85.27,-81.39l-29.79 -40c-21.3,4.66 -226.07,144.78 -339.96,-20.8 -99.45,-144.59 -44.52,-369.76 189.2,-369.76 65.13,0 180.56,116.06 180.56,13.89 0,-132.53 -500,-169.92 -500,180.56l-0.01 0z"/>
   <path class="fil1" d="M4428.02 5015.55c54.49,57.44 80.06,41.67 208.33,41.67l0 472.22c0,58.84 83.33,58.84 83.33,0l0 -472.22c117.07,0 165.88,16.28 208.33,-41.67 -24.29,-90.96 -202.43,-55.56 -416.67,-55.56 -60.97,0 -62.76,16.67 -83.33,55.56l0.01 0z"/>
   <path class="fil1" d="M10566.91 5015.55l0 500c0,88.31 177.52,55.56 361.11,55.56 67.47,0 60.34,-97.22 -41.67,-97.22l-222.22 0 0 -430.56c0,-110.6 -97.22,-87.29 -97.22,-27.78z"/>
   <path class="fil1" d="M14261.35 4973.89l-0.48 472.7c-1.02,61.83 -16.41,124.52 42.15,124.52 32,0 41.67,-9.67 41.67,-41.67l0 -513.89c0,-56.35 -43.01,-57.32 -83.33,-41.67l-0.01 0.01z"/>
  </g>
 </g>
</svg>
