<?xml version="1.0" encoding="UTF-8" standalone="no"?>
<svg
   xmlns:dc="http://purl.org/dc/elements/1.1/"
   xmlns:cc="http://creativecommons.org/ns#"
   xmlns:rdf="http://www.w3.org/1999/02/22-rdf-syntax-ns#"
   xmlns:svg="http://www.w3.org/2000/svg"
   xmlns="http://www.w3.org/2000/svg"
   viewBox="0 0 2214.5601 665.82135"
   height="665.82135"
   width="2214.5601"
   xml:space="preserve"
   id="svg2"
   version="1.1"><metadata
     id="metadata8"><rdf:RDF><cc:Work
         rdf:about=""><dc:format>image/svg+xml</dc:format><dc:type
           rdf:resource="http://purl.org/dc/dcmitype/StillImage" /></cc:Work></rdf:RDF></metadata><defs
     id="defs6"><clipPath
       id="clipPath18"
       clipPathUnits="userSpaceOnUse"><path
         id="path16"
         d="M 0,499.366 H 1660.918 V 0 H 0 Z" /></clipPath></defs><g
     transform="matrix(1.3333333,0,0,-1.3333333,0,665.82133)"
     id="g10"><g
       id="g12"><g
         clip-path="url(#clipPath18)"
         id="g14"><g
           transform="translate(822.5128,200.0375)"
           id="g20"><path
             id="path22"
             style="fill:#213963;fill-opacity:1;fill-rule:nonzero;stroke:none"
             d="M 0,0 C -2.979,0 -5.394,2.416 -5.394,5.395 V 137.233 L -55.959,82.687 c -2.374,-2.555 -5.635,-4.089 -9.216,-4 -3.483,0.015 -6.827,1.499 -9.174,4.074 l -49.254,53.98 V 17.616 c 0,-5.682 -4.619,-10.302 -10.298,-10.302 h -55.173 c -5.679,0 -10.299,4.621 -10.299,10.302 v 222.308 c 0,5.679 4.62,10.299 10.299,10.299 h 61.329 c 3.208,0 6.175,-1.454 8.139,-3.988 l 55.274,-71.192 55.273,71.195 c 1.962,2.531 4.929,3.985 8.136,3.985 h 61.001 c 5.678,0 10.298,-4.62 10.298,-10.299 v -26.816 c 0,-2.979 -2.416,-5.395 -5.394,-5.395 -2.979,0 -5.395,2.416 -5.395,5.395 v 26.327 h -60.51 l -55.276,-71.51 c -3.926,-5.065 -12.343,-5.062 -16.272,0.003 l -55.659,71.694 -60.454,-0.187 V 18.103 h 54.193 V 150.66 c 0,2.228 1.368,4.225 3.445,5.029 2.056,0.807 4.43,0.258 5.934,-1.392 l 58.636,-64.264 c 0.444,-0.486 1.02,-0.643 1.254,-0.554 0.283,0 0.81,0.071 1.25,0.545 l 59.914,64.632 c 1.51,1.626 3.866,2.155 5.928,1.356 2.065,-0.81 3.424,-2.804 3.424,-5.023 V 5.395 C 5.394,2.416 2.979,0 0,0" /></g><g
           transform="translate(841.0836,172.0277)"
           id="g24"><path
             id="path26"
             style="fill:#213963;fill-opacity:1;fill-rule:nonzero;stroke:none"
             d="m 0,0 c -13.215,0 -23.966,10.751 -23.966,23.966 v 50.209 c 0,2.98 2.415,5.395 5.395,5.395 2.979,0 5.395,-2.415 5.395,-5.395 V 23.966 c 0,-7.265 5.91,-13.176 13.176,-13.176 7.265,0 13.175,5.911 13.175,13.176 v 108.261 c 0,2.979 2.416,5.395 5.395,5.395 2.981,0 5.396,-2.416 5.396,-5.395 V 23.966 C 23.966,10.751 13.214,0 0,0" /></g><g
           transform="translate(1113.7075,414.9359)"
           id="g28"><path
             id="path30"
             style="fill:#f68712;fill-opacity:1;fill-rule:nonzero;stroke:none"
             d="m 0,0 h -60.997 c -3.208,0 -6.175,-1.454 -8.136,-3.982 l -55.277,-71.204 -55.274,71.204 C -181.65,-1.448 -184.618,0 -187.819,0 h -61.329 c -5.68,0 -10.299,-4.623 -10.299,-10.302 v -169.319 c 0,-0.003 -10e-4,-0.007 -0.002,-0.01 v -51.154 c 0,-4.254 -2.035,-8.033 -5.175,-10.444 0.285,0.055 0.569,0.126 0.851,0.231 14.986,5.584 64.083,23.892 66.569,25.09 8.219,3.981 13.527,12.456 13.527,21.576 v 40.97 39.883 l 49.253,-53.989 c 2.35,-2.569 5.695,-4.058 9.178,-4.071 h 0.05 c 3.466,0 6.801,1.454 9.156,4 l 50.571,54.547 v -119.614 c 0,-5.68 4.62,-10.302 10.299,-10.302 H 0 c 5.682,0 10.302,4.622 10.302,10.301 V -10.302 C 10.302,-4.623 5.682,0 0,0" /></g><g
           transform="translate(463.1407,91.7211)"
           id="g32"><path
             id="path34"
             style="fill:#4f4c4d;fill-opacity:1;fill-rule:nonzero;stroke:none"
             d="M 0,0 C 0.494,-0.492 0.739,-1.125 0.739,-1.893 0.739,-2.66 0.494,-3.29 0,-3.782 -0.494,-4.274 -1.124,-4.523 -1.891,-4.523 h -11.784 v -34.695 c 0,-0.803 -0.274,-1.478 -0.822,-2.026 -0.549,-0.548 -1.225,-0.823 -2.029,-0.823 -0.803,0 -1.479,0.275 -2.028,0.823 -0.548,0.548 -0.822,1.223 -0.822,2.026 v 34.695 h -11.838 c -0.768,0 -1.399,0.249 -1.891,0.741 -0.494,0.492 -0.742,1.122 -0.742,1.889 0,0.768 0.248,1.401 0.742,1.893 0.492,0.491 1.123,0.741 1.891,0.741 H -1.891 C -1.124,0.741 -0.494,0.491 0,0" /></g><g
           transform="translate(546.1651,54.2025)"
           id="g36"><path
             id="path38"
             style="fill:#4f4c4d;fill-opacity:1;fill-rule:nonzero;stroke:none"
             d="M 0,0 C 0.512,-0.476 0.768,-1.096 0.768,-1.863 0.768,-2.667 0.512,-3.316 0,-3.808 -0.512,-4.304 -1.187,-4.549 -2.029,-4.549 h -24.774 c -0.803,0 -1.479,0.276 -2.027,0.823 -0.549,0.547 -0.823,1.223 -0.823,2.027 v 37.108 c 0,0.84 0.274,1.526 0.823,2.054 0.548,0.531 1.224,0.797 2.027,0.797 H -2.029 C -1.187,38.26 -0.512,38.01 0,37.519 0.512,37.026 0.768,36.377 0.768,35.573 0.768,34.806 0.512,34.183 0,33.71 -0.512,33.234 -1.187,32.995 -2.029,32.995 H -23.953 V 19.676 h 15.732 c 0.802,0 1.47,-0.246 2.001,-0.739 0.528,-0.495 0.793,-1.125 0.793,-1.892 0,-0.767 -0.265,-1.397 -0.793,-1.889 -0.531,-0.495 -1.199,-0.741 -2.001,-0.741 H -23.953 V 0.712 H -2.029 C -1.187,0.712 -0.512,0.476 0,0" /></g><g
           transform="translate(627.9283,91.9105)"
           id="g40"><path
             id="path42"
             style="fill:#4f4c4d;fill-opacity:1;fill-rule:nonzero;stroke:none"
             d="m 0,0 c 2.029,-0.731 4.083,-1.935 6.166,-3.614 0.44,-0.331 0.731,-0.669 0.877,-1.017 0.146,-0.348 0.22,-0.758 0.22,-1.233 0,-0.732 -0.265,-1.331 -0.795,-1.807 -0.53,-0.475 -1.141,-0.712 -1.835,-0.712 -0.695,0 -1.335,0.237 -1.919,0.712 -1.499,1.279 -2.96,2.2 -4.385,2.768 -1.425,0.564 -3.27,0.849 -5.537,0.849 -2.85,0 -5.472,-0.751 -7.864,-2.246 -2.395,-1.499 -4.294,-3.536 -5.701,-6.114 -1.407,-2.574 -2.11,-5.379 -2.11,-8.413 0,-3.069 0.703,-5.884 2.11,-8.439 1.407,-2.558 3.306,-4.588 5.701,-6.084 2.392,-1.499 5.014,-2.25 7.864,-2.25 3.508,0 6.87,1.207 10.086,3.618 0.622,0.439 1.224,0.659 1.809,0.659 0.694,0 1.27,-0.246 1.727,-0.741 0.456,-0.493 0.686,-1.142 0.686,-1.945 0,-0.767 -0.294,-1.443 -0.878,-2.027 -3.947,-3.178 -8.423,-4.769 -13.43,-4.769 -3.909,0 -7.481,0.967 -10.715,2.906 -3.234,1.935 -5.782,4.586 -7.645,7.947 -1.865,3.362 -2.796,7.071 -2.796,11.125 0,4.021 0.931,7.701 2.796,11.044 1.863,3.346 4.411,5.995 7.645,7.95 C -14.688,0.122 -11.117,1.1 -7.208,1.1 -4.431,1.1 -2.027,0.731 0,0" /></g><g
           transform="translate(717.5308,91.6644)"
           id="g44"><path
             id="path46"
             style="fill:#4f4c4d;fill-opacity:1;fill-rule:nonzero;stroke:none"
             d="M 0,0 C 0.549,0.532 1.225,0.798 2.028,0.798 2.832,0.798 3.5,0.532 4.029,0 4.559,-0.527 4.825,-1.213 4.825,-2.053 v -37.108 c 0,-0.84 -0.266,-1.526 -0.796,-2.057 -0.529,-0.527 -1.197,-0.793 -2.001,-0.793 -0.402,0 -0.813,0.081 -1.233,0.245 -0.42,0.164 -0.739,0.414 -0.959,0.742 l -23.897,31.789 v -29.926 c 0,-0.804 -0.266,-1.48 -0.795,-2.027 -0.53,-0.547 -1.216,-0.823 -2.056,-0.823 -0.805,0 -1.47,0.266 -2,0.793 -0.53,0.531 -0.796,1.217 -0.796,2.057 v 37.108 c 0,0.84 0.266,1.526 0.796,2.053 0.53,0.532 1.195,0.798 2,0.798 0.402,0 0.804,-0.102 1.206,-0.302 0.402,-0.204 0.731,-0.449 0.987,-0.741 l 23.897,-31.792 v 29.984 c 0,0.84 0.274,1.526 0.822,2.053" /></g><g
           transform="translate(788.3345,85.6625)"
           id="g48"><path
             id="path50"
             style="fill:#4f4c4d;fill-opacity:1;fill-rule:nonzero;stroke:none"
             d="m 0,0 c -2.468,-1.459 -4.395,-3.47 -5.784,-6.028 -1.389,-2.558 -2.083,-5.409 -2.083,-8.551 0,-3.142 0.694,-5.992 2.083,-8.55 1.389,-2.558 3.326,-4.576 5.81,-6.055 2.485,-1.482 5.281,-2.22 8.387,-2.22 3.106,0 5.9,0.738 8.386,2.22 2.485,1.479 4.42,3.497 5.809,6.055 1.389,2.558 2.082,5.408 2.082,8.55 0,3.142 -0.693,5.993 -2.082,8.551 C 21.219,-3.47 19.292,-1.459 16.826,0 14.359,1.463 11.555,2.194 8.413,2.194 5.269,2.194 2.466,1.463 0,0 m 19.676,4.55 c 3.307,-1.863 5.882,-4.458 7.729,-7.783 1.845,-3.324 2.768,-7.108 2.768,-11.346 0,-4.237 -0.923,-8.028 -2.768,-11.371 -1.847,-3.346 -4.413,-5.949 -7.701,-7.813 -3.288,-1.863 -7.054,-2.794 -11.291,-2.794 -4.24,0 -8.013,0.931 -11.319,2.794 -3.308,1.864 -5.874,4.468 -7.701,7.813 -1.827,3.343 -2.741,7.134 -2.741,11.371 0,4.238 0.914,8.022 2.741,11.346 1.827,3.325 4.393,5.92 7.701,7.783 3.306,1.866 7.079,2.797 11.319,2.797 4.201,0 7.955,-0.931 11.263,-2.797" /></g><g
           transform="translate(898.6539,54.5307)"
           id="g52"><path
             id="path54"
             style="fill:#4f4c4d;fill-opacity:1;fill-rule:nonzero;stroke:none"
             d="M 0,0 C 0.548,-0.548 0.823,-1.224 0.823,-2.027 0.823,-2.831 0.548,-3.507 0,-4.055 -0.548,-4.602 -1.224,-4.878 -2.027,-4.878 h -22.694 c -0.802,0 -1.468,0.276 -2,0.823 -0.528,0.548 -0.794,1.224 -0.794,2.028 v 37.108 c 0,0.804 0.276,1.48 0.824,2.027 0.547,0.547 1.203,0.824 1.97,0.824 0.804,0 1.484,-0.277 2.031,-0.824 0.547,-0.547 0.82,-1.223 0.82,-2.027 V 0.823 H -2.027 C -1.224,0.823 -0.548,0.548 0,0" /></g><g
           transform="translate(965.4547,85.6625)"
           id="g56"><path
             id="path58"
             style="fill:#4f4c4d;fill-opacity:1;fill-rule:nonzero;stroke:none"
             d="m 0,0 c -2.467,-1.459 -4.396,-3.47 -5.782,-6.028 -1.391,-2.559 -2.083,-5.409 -2.083,-8.551 0,-3.142 0.692,-5.992 2.083,-8.55 1.386,-2.558 3.322,-4.576 5.808,-6.055 2.487,-1.482 5.281,-2.22 8.387,-2.22 3.106,0 5.9,0.738 8.386,2.22 2.483,1.479 4.422,3.497 5.809,6.055 1.387,2.558 2.082,5.408 2.082,8.55 0,3.142 -0.695,5.992 -2.082,8.551 C 21.221,-3.47 19.292,-1.459 16.825,0 14.359,1.463 11.555,2.194 8.413,2.194 5.271,2.194 2.467,1.463 0,0 m 19.676,4.55 c 3.305,-1.863 5.884,-4.458 7.727,-7.783 1.847,-3.324 2.768,-7.108 2.768,-11.346 0,-4.237 -0.921,-8.028 -2.768,-11.371 -1.843,-3.346 -4.412,-5.949 -7.701,-7.813 -3.286,-1.863 -7.052,-2.794 -11.289,-2.794 -4.241,0 -8.013,0.931 -11.319,2.794 -3.306,1.864 -5.874,4.467 -7.701,7.813 -1.827,3.343 -2.739,7.134 -2.739,11.371 0,4.238 0.912,8.022 2.739,11.346 1.827,3.325 4.395,5.92 7.701,7.783 3.306,1.866 7.078,2.797 11.319,2.797 4.201,0 7.957,-0.931 11.263,-2.797" /></g><g
           transform="translate(1082.9224,71.057)"
           id="g60"><path
             id="path62"
             style="fill:#4f4c4d;fill-opacity:1;fill-rule:nonzero;stroke:none"
             d="m 0,0 c 0.531,-0.531 0.797,-1.217 0.797,-2.056 v -13.1 c 0,-0.875 -0.295,-1.554 -0.879,-2.027 -3.834,-3.178 -8.312,-4.768 -13.428,-4.768 -3.909,0 -7.481,0.967 -10.715,2.905 -3.234,1.936 -5.783,4.586 -7.645,7.947 -1.863,3.363 -2.795,7.072 -2.795,11.125 0,4.022 0.932,7.702 2.795,11.044 1.862,3.345 4.411,5.995 7.645,7.951 3.234,1.955 6.806,2.931 10.715,2.931 2.779,0 5.179,-0.367 7.209,-1.098 2.028,-0.732 4.084,-1.935 6.166,-3.615 0.437,-0.331 0.729,-0.669 0.876,-1.016 0.145,-0.348 0.22,-0.758 0.22,-1.234 0,-0.731 -0.266,-1.331 -0.794,-1.806 -0.531,-0.476 -1.161,-0.712 -1.893,-0.712 -0.655,0 -1.278,0.236 -1.862,0.712 -1.499,1.278 -2.962,2.2 -4.386,2.767 -1.426,0.565 -3.269,0.85 -5.536,0.85 -2.85,0 -5.47,-0.751 -7.865,-2.247 -2.395,-1.498 -4.293,-3.535 -5.7,-6.114 -1.407,-2.574 -2.11,-5.378 -2.11,-8.413 0,-3.069 0.703,-5.883 2.11,-8.438 1.407,-2.559 3.305,-4.589 5.7,-6.084 2.395,-1.499 5.015,-2.25 7.865,-2.25 3.071,0 6.012,0.915 8.826,2.741 v 9.758 h -7.566 c -0.84,0 -1.525,0.236 -2.054,0.712 -0.531,0.475 -0.797,1.076 -0.797,1.806 0,0.732 0.266,1.335 0.797,1.811 0.529,0.476 1.214,0.712 2.054,0.712 H -1.997 C -1.197,0.794 -0.528,0.528 0,0" /></g><g
           transform="translate(1137.3384,91.6644)"
           id="g64"><path
             id="path66"
             style="fill:#4f4c4d;fill-opacity:1;fill-rule:nonzero;stroke:none"
             d="M 0,0 C 0.548,0.531 1.224,0.797 2.027,0.797 2.866,0.797 3.552,0.531 4.083,0 4.611,-0.527 4.877,-1.213 4.877,-2.053 v -37.108 c 0,-0.804 -0.266,-1.48 -0.794,-2.027 -0.531,-0.547 -1.217,-0.824 -2.056,-0.824 -0.803,0 -1.479,0.277 -2.027,0.824 -0.548,0.547 -0.823,1.223 -0.823,2.027 v 37.108 c 0,0.84 0.275,1.526 0.823,2.053" /></g><g
           transform="translate(1221.1548,63.7963)"
           id="g68"><path
             id="path70"
             style="fill:#4f4c4d;fill-opacity:1;fill-rule:nonzero;stroke:none"
             d="M 0,0 -7.835,19.512 -15.838,0 Z m 10.47,-11.349 c 0,-0.767 -0.273,-1.423 -0.824,-1.971 -0.547,-0.548 -1.223,-0.824 -2.027,-0.824 -0.548,0 -1.069,0.155 -1.561,0.466 -0.496,0.312 -0.849,0.741 -1.069,1.289 l -3.07,7.672 h -19.676 l -3.126,-7.672 c -0.256,-0.548 -0.62,-0.977 -1.096,-1.289 -0.475,-0.311 -0.987,-0.466 -1.534,-0.466 -0.803,0 -1.472,0.283 -2.001,0.85 -0.531,0.567 -0.794,1.233 -0.794,2.001 0,0.364 0.089,0.784 0.273,1.26 l 15.402,36.78 c 0.548,1.279 1.443,1.918 2.686,1.918 1.315,0 2.211,-0.639 2.686,-1.918 l 15.458,-36.889 c 0.181,-0.475 0.273,-0.876 0.273,-1.207" /></g><g
           transform="translate(266.5128,308.6024)"
           id="g72"><path
             id="path74"
             style="fill:#213963;fill-opacity:1;fill-rule:nonzero;stroke:none"
             d="M 0,0 C 0,-25.027 -8.8,-43.486 -26.872,-56.392 -40.281,-65.78 -58.135,-70.547 -79.946,-70.547 H -114.69 V 70.844 h 37.679 c 26.897,0 47.3,-7.364 60.571,-21.827 C -5.531,36.736 0,20.249 0,0 m -73.191,109.392 h -62.532 c -5.764,0 -10.924,-2.108 -14.92,-6.103 -3.994,-3.984 -6.108,-9.049 -6.108,-14.643 V -88.349 c 0,-5.594 2.108,-10.659 6.082,-14.622 3.984,-4.005 9.155,-6.124 14.946,-6.124 h 58.119 c 32.375,0 59.002,7.406 79.129,22.017 27.285,19.773 41.118,49.07 41.118,87.078 0,31.014 -8.604,56.211 -25.557,74.881 -20.535,22.898 -50.908,34.511 -90.277,34.511" /></g><g
           transform="translate(536.4356,308.454)"
           id="g76"><path
             id="path78"
             style="fill:#213963;fill-opacity:1;fill-rule:nonzero;stroke:none"
             d="m 0,0 c 0,-19.687 -6.909,-36.704 -20.535,-50.585 -13.573,-13.828 -30.405,-20.842 -50.023,-20.842 -19.619,0 -36.402,6.962 -49.88,20.683 -13.526,13.796 -20.382,30.877 -20.382,50.744 0,19.719 6.872,36.8 20.419,50.786 13.658,14.093 29.965,20.938 49.843,20.938 19.607,0 36.433,-7.047 50.002,-20.949 C -6.914,36.789 0,19.708 0,0 m -70.558,112.327 c -31.126,0 -58.14,-10.903 -80.301,-32.423 C -173.079,58.31 -184.348,31.428 -184.348,0 c 0,-31.248 11.274,-57.991 33.504,-79.469 22.135,-21.414 49.144,-32.265 80.286,-32.265 31.13,0 58.14,10.851 80.28,32.265 22.235,21.488 33.509,48.221 33.509,79.469 0,31.406 -11.269,58.299 -33.499,79.915 -22.167,21.509 -49.181,32.412 -80.29,32.412" /></g><g
           transform="translate(1316.3892,414.683)"
           id="g80"><path
             id="path82"
             style="fill:#213963;fill-opacity:1;fill-rule:nonzero;stroke:none"
             d="m 0,0 c -4.006,-3.974 -6.119,-9.039 -6.119,-14.644 v -109.19 c 0,-16.943 -4.238,-30.263 -12.583,-39.566 -8.859,-9.843 -22.135,-14.834 -39.47,-14.834 -17.186,0 -29.901,4.842 -38.871,14.813 -8.365,9.335 -12.609,22.654 -12.609,39.587 v 109.19 c 0,5.595 -2.109,10.66 -6.077,14.623 -8.042,8.095 -21.33,8.137 -29.579,0.169 -4.185,-4.005 -6.399,-9.123 -6.399,-14.792 V -126.77 c 0,-25.959 7.327,-47.12 21.737,-62.834 16.831,-18.818 41.086,-28.354 72.089,-28.354 30.983,0 55.227,9.525 72.016,28.27 14.479,15.788 21.822,36.959 21.822,62.918 v 112.126 c 0,5.68 -2.215,10.787 -6.368,14.75 C 21.281,8.138 8.026,8.074 0,0" /></g><g
           transform="translate(1520.7095,316.7821)"
           id="g84"><path
             id="path86"
             style="fill:#213963;fill-opacity:1;fill-rule:nonzero;stroke:none"
             d="m 0,0 -0.085,0.042 c -7.814,4.429 -19.539,8.954 -34.855,13.457 -14.517,4.26 -23.131,6.855 -25.541,7.714 -22.671,8.328 -22.671,17.822 -22.671,20.937 0,10.713 4.048,23.015 35.624,23.015 8.657,0 17.499,-1.601 26.421,-4.811 2.018,-0.667 4.249,-1.61 6.669,-2.776 3.037,-1.462 5.542,-2.617 7.481,-3.423 8.668,-3.655 17.208,-2.235 23.407,3.921 3.782,3.815 5.785,8.763 5.785,14.326 0,6.58 -3.327,15.809 -19.073,22.304 -14.055,6.167 -30.712,9.293 -49.515,9.293 -24.699,0 -44.232,-5.394 -58.049,-16.021 -14.59,-11.189 -21.992,-26.797 -21.992,-46.4 0,-23.332 11.857,-41.006 35.841,-52.799 l 57.546,-20.313 c 17.595,-7.586 19.629,-16.19 19.629,-21.997 0,-8.392 -2.654,-14.675 -8.365,-19.793 -5.818,-5.234 -15.285,-7.894 -28.138,-7.894 -11.067,0 -21.599,2.374 -31.465,7.121 -3.078,1.366 -6.054,2.934 -8.837,4.673 -3.295,2.045 -5.753,3.549 -7.401,4.471 -8.137,4.578 -17.006,3.295 -23.708,-3.433 -3.915,-3.878 -5.981,-8.996 -5.981,-14.792 0,-8.519 5.377,-15.809 16.01,-21.669 18.527,-10.098 39.179,-15.215 61.382,-15.215 23.406,0 42.712,6.028 57.377,17.938 15.227,12.366 22.951,29.415 22.951,50.649 C 30.447,-29.277 20.201,-11.953 0,0" /></g></g></g></g></svg>