<svg xmlns="http://www.w3.org/2000/svg" xmlns:xlink="http://www.w3.org/1999/xlink" width="500" zoomAndPan="magnify" viewBox="0 0 375 374.999991" height="500" preserveAspectRatio="xMidYMid meet" version="1.0"><defs><g/></defs><g fill="#5e17eb" fill-opacity="1"><g transform="translate(41.671155, 268.218022)"><g><path d="M 29.929688 -168.617188 L 2.320312 -168.617188 C 1.054688 -168.617188 0 -167.5625 0 -166.71875 L 0 -100.539062 L 32.246094 -100.539062 L 32.246094 -137.84375 C 68.921875 -139.742188 96.109375 -124.355469 96.109375 -84.308594 C 96.109375 -32.246094 52.691406 -30.140625 32.246094 -30.984375 L 32.246094 -68.078125 L 0 -68.078125 L 0 -1.898438 C 0 -1.054688 1.054688 0 2.320312 0 L 29.929688 0 C 71.871094 0 128.570312 -12.226562 128.570312 -84.308594 C 128.570312 -159.132812 71.03125 -168.617188 29.929688 -168.617188 Z M 29.929688 -168.617188 "/></g></g></g><g fill="#5e17eb" fill-opacity="1"><g transform="translate(176.766027, 268.218022)"><g><path d="M 96.953125 -83.886719 C 96.953125 -92.738281 90 -99.90625 81.148438 -99.90625 C 72.292969 -99.90625 65.339844 -92.738281 65.339844 -83.886719 C 65.339844 -75.246094 72.292969 -68.078125 81.148438 -68.078125 C 90 -68.078125 96.953125 -75.246094 96.953125 -83.886719 Z M 162.292969 -84.519531 C 162.292969 -126.460938 135.105469 -168.617188 81.355469 -168.617188 C 26.769531 -168.617188 0 -126.460938 0 -84.519531 C 0 -42.363281 26.769531 0 81.355469 0 C 135.105469 0 162.292969 -42.363281 162.292969 -84.519531 Z M 130.675781 -83.886719 C 130.675781 -56.695312 114.027344 -29.507812 81.355469 -29.507812 C 48.265625 -29.507812 31.828125 -56.695312 31.828125 -83.886719 C 31.828125 -111.496094 48.265625 -138.898438 81.355469 -138.898438 C 114.027344 -138.898438 130.675781 -111.496094 130.675781 -83.886719 Z M 130.675781 -83.886719 "/></g></g></g><path stroke-linecap="round" transform="matrix(0.748099, 0, 0, 0.75, 1.26746, 100.367285)" fill="none" stroke-linejoin="miter" d="M 16.998967 16.999871 L 106.319075 16.999871 " stroke="#8f61ff" stroke-width="34" stroke-opacity="1" stroke-miterlimit="4"/><g fill="#8f61ff" fill-opacity="1"><g transform="translate(133.126742, 295.980271)"><g><path d="M 4.984375 0 L 4.109375 0 L 4.109375 -11.578125 L 0.078125 -11.578125 L 0.078125 -12.390625 L 9.015625 -12.390625 L 9.015625 -11.578125 L 4.984375 -11.578125 Z M 4.984375 0 "/></g></g><g transform="translate(142.224818, 295.980271)"><g><path d="M 8.53125 0 L 1.75 0 L 1.75 -12.390625 L 8.53125 -12.390625 L 8.53125 -11.59375 L 2.625 -11.59375 L 2.625 -6.90625 L 8.203125 -6.90625 L 8.203125 -6.109375 L 2.625 -6.109375 L 2.625 -0.796875 L 8.53125 -0.796875 Z M 8.53125 0 "/></g></g><g transform="translate(151.806202, 295.980271)"><g><path d="M 7.046875 -11.796875 C 5.492188 -11.796875 4.269531 -11.296875 3.375 -10.296875 C 2.476562 -9.304688 2.03125 -7.945312 2.03125 -6.21875 C 2.03125 -4.445312 2.453125 -3.070312 3.296875 -2.09375 C 4.140625 -1.113281 5.34375 -0.625 6.90625 -0.625 C 7.945312 -0.625 8.898438 -0.757812 9.765625 -1.03125 L 9.765625 -0.265625 C 8.953125 0.0234375 7.929688 0.171875 6.703125 0.171875 C 4.960938 0.171875 3.59375 -0.390625 2.59375 -1.515625 C 1.59375 -2.640625 1.09375 -4.210938 1.09375 -6.234375 C 1.09375 -7.492188 1.332031 -8.601562 1.8125 -9.5625 C 2.289062 -10.519531 2.976562 -11.257812 3.875 -11.78125 C 4.769531 -12.300781 5.8125 -12.5625 7 -12.5625 C 8.207031 -12.5625 9.285156 -12.335938 10.234375 -11.890625 L 9.890625 -11.109375 C 8.984375 -11.566406 8.035156 -11.796875 7.046875 -11.796875 Z M 7.046875 -11.796875 "/></g></g><g transform="translate(162.591619, 295.980271)"><g><path d="M 10.734375 0 L 9.859375 0 L 9.859375 -6.09375 L 2.625 -6.09375 L 2.625 0 L 1.75 0 L 1.75 -12.390625 L 2.625 -12.390625 L 2.625 -6.890625 L 9.859375 -6.890625 L 9.859375 -12.390625 L 10.734375 -12.390625 Z M 10.734375 0 "/></g></g><g transform="translate(175.081336, 295.980271)"><g><path d="M 10.765625 0 L 9.890625 0 L 2.546875 -11 L 2.484375 -11 C 2.546875 -9.6875 2.578125 -8.695312 2.578125 -8.03125 L 2.578125 0 L 1.75 0 L 1.75 -12.390625 L 2.625 -12.390625 L 9.953125 -1.40625 L 10 -1.40625 C 9.945312 -2.425781 9.921875 -3.394531 9.921875 -4.3125 L 9.921875 -12.390625 L 10.765625 -12.390625 Z M 10.765625 0 "/></g></g><g transform="translate(187.604969, 295.980271)"><g><path d="M 12.171875 -6.21875 C 12.171875 -4.25 11.675781 -2.691406 10.6875 -1.546875 C 9.707031 -0.398438 8.351562 0.171875 6.625 0.171875 C 4.90625 0.171875 3.550781 -0.398438 2.5625 -1.546875 C 1.582031 -2.691406 1.09375 -4.253906 1.09375 -6.234375 C 1.09375 -8.203125 1.585938 -9.753906 2.578125 -10.890625 C 3.566406 -12.023438 4.921875 -12.59375 6.640625 -12.59375 C 8.367188 -12.59375 9.722656 -12.019531 10.703125 -10.875 C 11.679688 -9.738281 12.171875 -8.1875 12.171875 -6.21875 Z M 2.03125 -6.21875 C 2.03125 -4.4375 2.425781 -3.0625 3.21875 -2.09375 C 4.007812 -1.125 5.144531 -0.640625 6.625 -0.640625 C 8.113281 -0.640625 9.253906 -1.117188 10.046875 -2.078125 C 10.835938 -3.046875 11.234375 -4.425781 11.234375 -6.21875 C 11.234375 -8 10.835938 -9.363281 10.046875 -10.3125 C 9.253906 -11.269531 8.117188 -11.75 6.640625 -11.75 C 5.171875 -11.75 4.035156 -11.265625 3.234375 -10.296875 C 2.429688 -9.335938 2.03125 -7.976562 2.03125 -6.21875 Z M 2.03125 -6.21875 "/></g></g><g transform="translate(200.874762, 295.980271)"><g><path d="M 1.75 0 L 1.75 -12.390625 L 2.625 -12.390625 L 2.625 -0.8125 L 8.53125 -0.8125 L 8.53125 0 Z M 1.75 0 "/></g></g><g transform="translate(209.786298, 295.980271)"><g><path d="M 12.171875 -6.21875 C 12.171875 -4.25 11.675781 -2.691406 10.6875 -1.546875 C 9.707031 -0.398438 8.351562 0.171875 6.625 0.171875 C 4.90625 0.171875 3.550781 -0.398438 2.5625 -1.546875 C 1.582031 -2.691406 1.09375 -4.253906 1.09375 -6.234375 C 1.09375 -8.203125 1.585938 -9.753906 2.578125 -10.890625 C 3.566406 -12.023438 4.921875 -12.59375 6.640625 -12.59375 C 8.367188 -12.59375 9.722656 -12.019531 10.703125 -10.875 C 11.679688 -9.738281 12.171875 -8.1875 12.171875 -6.21875 Z M 2.03125 -6.21875 C 2.03125 -4.4375 2.425781 -3.0625 3.21875 -2.09375 C 4.007812 -1.125 5.144531 -0.640625 6.625 -0.640625 C 8.113281 -0.640625 9.253906 -1.117188 10.046875 -2.078125 C 10.835938 -3.046875 11.234375 -4.425781 11.234375 -6.21875 C 11.234375 -8 10.835938 -9.363281 10.046875 -10.3125 C 9.253906 -11.269531 8.117188 -11.75 6.640625 -11.75 C 5.171875 -11.75 4.035156 -11.265625 3.234375 -10.296875 C 2.429688 -9.335938 2.03125 -7.976562 2.03125 -6.21875 Z M 2.03125 -6.21875 "/></g></g><g transform="translate(223.056091, 295.980271)"><g><path d="M 6.625 -6.25 L 11.203125 -6.25 L 11.203125 -0.59375 C 10.003906 -0.0820312 8.65625 0.171875 7.15625 0.171875 C 5.195312 0.171875 3.695312 -0.378906 2.65625 -1.484375 C 1.613281 -2.585938 1.09375 -4.148438 1.09375 -6.171875 C 1.09375 -7.429688 1.347656 -8.550781 1.859375 -9.53125 C 2.378906 -10.507812 3.117188 -11.265625 4.078125 -11.796875 C 5.046875 -12.328125 6.15625 -12.59375 7.40625 -12.59375 C 8.757812 -12.59375 9.972656 -12.34375 11.046875 -11.84375 L 10.703125 -11.0625 C 9.628906 -11.5625 8.515625 -11.8125 7.359375 -11.8125 C 5.722656 -11.8125 4.425781 -11.304688 3.46875 -10.296875 C 2.507812 -9.285156 2.03125 -7.925781 2.03125 -6.21875 C 2.03125 -4.351562 2.484375 -2.945312 3.390625 -2 C 4.304688 -1.0625 5.644531 -0.59375 7.40625 -0.59375 C 8.550781 -0.59375 9.519531 -0.753906 10.3125 -1.078125 L 10.3125 -5.4375 L 6.625 -5.4375 Z M 6.625 -6.25 "/></g></g><g transform="translate(235.613641, 295.980271)"><g><path d="M 4.609375 -5.609375 L 8.234375 -12.390625 L 9.15625 -12.390625 L 5.03125 -4.796875 L 5.03125 0 L 4.140625 0 L 4.140625 -4.71875 L 0 -12.390625 L 0.984375 -12.390625 Z M 4.609375 -5.609375 "/></g></g></g><path stroke-linecap="round" transform="matrix(0.748099, 0, 0, 0.75, 260.835866, 243.776586)" fill="none" stroke-linejoin="miter" d="M 17.001515 17.001012 L 106.316402 17.001012 " stroke="#8f61ff" stroke-width="34" stroke-opacity="1" stroke-miterlimit="4"/></svg>